HIERARCHY
ROOT Hips
{
	OFFSET -0.001795 -0.223333 0.028219
	CHANNELS 6 Xposition Yposition Zposition Zrotation Yrotation Xrotation 
	JOINT LeftUpLeg
	{
		OFFSET 0.069520 -0.091406 -0.006815
		CHANNELS 3 Zrotation Yrotation Xrotation
		JOINT LeftLeg
		{
			OFFSET 0.034277 -0.375199 -0.004496
			CHANNELS 3 Zrotation Yrotation Xrotation
			JOINT LeftFoot
			{
				OFFSET -0.013596 -0.397961 -0.043693
				CHANNELS 3 Zrotation Yrotation Xrotation
				JOINT LeftToe
				{
					OFFSET 0.026358 -0.055791 0.119288
					CHANNELS 3 Zrotation Yrotation Xrotation
					End Site
					{
						OFFSET 0.000000 0.000000 0.000000
					}
				}
			}
		}
	}
	JOINT RightUpLeg
	{
		OFFSET -0.067670 -0.090522 -0.004320
		CHANNELS 3 Zrotation Yrotation Xrotation
		JOINT RightLeg
		{
			OFFSET -0.038290 -0.382569 -0.008850
			CHANNELS 3 Zrotation Yrotation Xrotation
			JOINT RightFoot
			{
				OFFSET 0.015774 -0.398415 -0.042312
				CHANNELS 3 Zrotation Yrotation Xrotation
				JOINT RightToe
				{
					OFFSET -0.025372 -0.048144 0.123348
					CHANNELS 3 Zrotation Yrotation Xrotation
					End Site
					{
						OFFSET 0.000000 0.000000 0.000000
					}
				}
			}
		}
	}
	JOINT Spine
	{
		OFFSET -0.002533 0.108963 -0.026696
		CHANNELS 3 Zrotation Yrotation Xrotation
		JOINT Spine1
		{
			OFFSET 0.005487 0.135180 0.001092
			CHANNELS 3 Zrotation Yrotation Xrotation
			JOINT Spine2
			{
				OFFSET 0.001457 0.052922 0.025425
				CHANNELS 3 Zrotation Yrotation Xrotation
				JOINT Neck
				{
					OFFSET -0.002778 0.213870 -0.042857
					CHANNELS 3 Zrotation Yrotation Xrotation
					JOINT Head
					{
						OFFSET 0.005152 0.064970 0.051349
						CHANNELS 3 Zrotation Yrotation Xrotation
						End Site
						{
							OFFSET 0.000000 0.000000 0.000000
						}
					}
				}
				JOINT LeftShoulder
				{
					OFFSET 0.078845 0.121749 -0.034090
					CHANNELS 3 Zrotation Yrotation Xrotation
					JOINT LeftArm
					{
						OFFSET 0.090977 0.030469 -0.008868
						CHANNELS 3 Zrotation Yrotation Xrotation
						JOINT LeftForeArm
						{
							OFFSET 0.259612 -0.012772 -0.027456
							CHANNELS 3 Zrotation Yrotation Xrotation
							JOINT LeftHand
							{
								OFFSET 0.249234 0.008986 -0.001171
								CHANNELS 3 Zrotation Yrotation Xrotation
								End Site
								{
									OFFSET 0.000000 0.000000 0.000000
								}
							}
						}
					}
				}
				JOINT RightShoulder
				{
					OFFSET -0.081759 0.118833 -0.038615
					CHANNELS 3 Zrotation Yrotation Xrotation
					JOINT RightArm
					{
						OFFSET -0.096012 0.032551 -0.009143
						CHANNELS 3 Zrotation Yrotation Xrotation
						JOINT RightForeArm
						{
							OFFSET -0.253742 -0.013329 -0.021401
							CHANNELS 3 Zrotation Yrotation Xrotation
							JOINT RightHand
							{
								OFFSET -0.255298 0.007772 -0.005559
								CHANNELS 3 Zrotation Yrotation Xrotation
								End Site
								{
									OFFSET 0.000000 0.000000 0.000000
								}
							}
						}
					}
				}
			}
		}
	}
}
MOTION
Frames: 16
Frame Time: 0.050000
-0.200336 0.865654 0.070929 4.304178 41.823135 21.391129 18.466699 -9.457975 -57.352306 -3.493485 -4.060937 37.153261 -14.294643 -20.751041 13.314502 0.000000 0.000000 0.000000 -5.863114 -7.999772 -47.511672 4.190809 -9.968431 49.328187 -7.682302 -14.186172 29.939311 0.000000 0.000000 0.000000 -2.850874 -5.219444 33.637293 -5.986695 2.565762 -7.002935 -2.552066 18.149850 11.779377 8.496531 2.161827 -25.002094 0.000000 0.000000 0.000000 -6.525886 11.807047 -9.228277 -75.145260 -19.653317 -4.147552 163.204564 -47.288177 -142.951399 0.000000 0.000000 0.000000 -13.330264 -14.465033 -8.013292 88.237110 1.416026 15.999809 -129.009565 39.759180 -48.268450 0.000000 0.000000 0.000000 
-0.204671 0.863042 0.070967 3.885690 42.409914 21.284779 19.580106 -9.393846 -58.102704 -5.945287 -3.040646 36.963315 -11.978601 -14.934356 13.929435 0.000000 0.000000 0.000000 -5.053341 -8.144184 -48.827208 3.381277 -9.848560 50.968015 -6.417512 -12.856881 31.147176 0.000000 0.000000 0.000000 -2.903443 -5.358886 33.913673 -6.215326 2.636091 -7.046463 -2.246371 17.696359 11.872008 8.385942 1.958089 -23.892670 0.000000 0.000000 0.000000 -6.330357 12.496541 -9.329171 -75.482425 -19.561689 -4.312328 162.956200 -46.956282 -141.809402 0.000000 0.000000 0.000000 -13.533652 -15.347249 -8.307824 90.638621 0.599989 16.490961 -130.564479 40.227116 -51.913842 0.000000 0.000000 0.000000 
-0.207170 0.861256 0.071306 3.510903 42.865399 21.126118 20.527418 -9.313012 -58.695424 -8.760500 -1.944491 36.806260 -9.008059 -8.010475 14.432073 0.000000 0.000000 0.000000 -4.667169 -8.340931 -49.690117 2.693836 -9.745783 52.334560 -3.924419 -10.135005 31.907163 0.000000 0.000000 0.000000 -3.349132 -5.351884 34.210438 -6.115564 2.609167 -7.080975 -1.934770 16.951964 11.753729 7.904050 1.883340 -22.679369 0.000000 0.000000 0.000000 -5.581084 13.719431 -9.192009 -76.557142 -20.712075 -3.878166 162.196118 -47.353540 -140.323605 0.000000 0.000000 0.000000 -13.388096 -15.471734 -8.278142 92.195448 0.477096 16.703329 -132.221517 40.116974 -54.337286 0.000000 0.000000 0.000000 
-0.208301 0.859824 0.071700 3.111143 43.010476 20.670418 20.762518 -9.267965 -58.763479 -10.835644 -1.226417 36.956197 -5.762440 -1.486127 14.100317 0.000000 0.000000 0.000000 -4.130477 -8.228516 -50.174337 2.099313 -9.658269 53.583841 -3.353883 -9.608139 31.874327 0.000000 0.000000 0.000000 -3.649663 -5.319354 34.392698 -6.522369 2.733093 -6.975335 -1.285831 16.746696 11.647186 7.380014 1.828518 -21.311853 0.000000 0.000000 0.000000 -5.330436 14.131273 -9.125204 -77.207974 -21.735867 -3.292037 161.664907 -47.341996 -139.058020 0.000000 0.000000 0.000000 -13.074590 -15.608749 -8.278795 92.951200 -0.019038 16.268919 -133.964002 39.945852 -56.264326 0.000000 0.000000 0.000000 
-0.208655 0.857934 0.072289 2.846809 43.251901 20.024809 21.206793 -9.166333 -58.755406 -12.346228 -0.778551 37.610037 -4.394206 0.825524 13.531917 0.000000 0.000000 0.000000 -4.096695 -8.206098 -49.960113 1.755860 -9.843961 54.657512 -2.281275 -8.290344 30.645957 0.000000 0.000000 0.000000 -4.231710 -5.252800 34.771365 -6.528351 2.740750 -6.878561 -1.050216 16.423914 11.818922 6.694273 1.974113 -20.477419 0.000000 0.000000 0.000000 -4.549056 14.783028 -8.792280 -78.190775 -24.037319 -1.991888 160.660107 -47.263591 -136.676878 0.000000 0.000000 0.000000 -13.702602 -14.931114 -8.100408 94.395885 0.502321 17.199402 -134.193606 38.930483 -55.532046 0.000000 0.000000 0.000000 
-0.209003 0.856146 0.073240 2.880005 43.951626 19.778916 20.908368 -9.510968 -58.927063 -12.176528 -1.046570 38.620736 -4.095810 0.588541 12.297189 0.000000 0.000000 0.000000 -4.300667 -8.581934 -50.048246 1.809049 -10.221803 55.257557 -2.084720 -8.371441 32.654697 0.000000 0.000000 0.000000 -4.593715 -5.374904 35.321800 -6.865631 2.842966 -6.809487 -0.844373 15.978729 11.902895 6.576152 1.724990 -19.226927 0.000000 0.000000 0.000000 -3.321412 14.575844 -7.889598 -80.026051 -26.588637 -0.715964 160.695200 -46.356196 -135.283022 0.000000 0.000000 0.000000 -14.081055 -14.249443 -7.897258 95.196150 0.872079 17.629530 -134.844268 37.601996 -54.424525 0.000000 0.000000 0.000000 
-0.209801 0.853411 0.074651 2.311758 44.189738 19.104481 21.455727 -9.438482 -59.279649 -12.759055 -0.954620 40.006717 -3.447040 1.080155 11.249602 0.000000 0.000000 0.000000 -4.053721 -8.442441 -49.960005 2.165710 -10.769744 55.833427 -3.000784 -9.452430 32.362886 0.000000 0.000000 0.000000 -5.709223 -5.257131 36.136311 -7.052995 2.886168 -6.285082 -0.637960 16.176741 11.477696 5.751198 1.751598 -17.571971 0.000000 0.000000 0.000000 -2.107490 14.644008 -7.079101 -80.861997 -29.420020 1.039283 160.185908 -45.277495 -132.631588 0.000000 0.000000 0.000000 -14.666330 -12.965450 -7.512130 95.578452 1.931933 18.564530 -134.925907 35.590583 -51.422009 0.000000 0.000000 0.000000 
-0.211531 0.851655 0.076682 1.705832 44.400162 18.576750 21.911965 -9.402509 -59.701789 -12.836733 -1.021028 41.256649 -3.038311 1.385498 10.590227 0.000000 0.000000 0.000000 -3.991508 -8.255601 -49.492951 2.952161 -11.356460 55.334835 -3.302704 -9.744790 32.404590 0.000000 0.000000 0.000000 -6.549212 -5.138695 36.631324 -7.403080 2.960241 -5.364377 -0.868888 15.992794 10.920321 5.570112 1.388419 -15.996727 0.000000 0.000000 0.000000 -0.777286 14.364244 -6.067827 -81.474445 -31.760714 2.529479 159.112246 -44.090345 -128.959398 0.000000 0.000000 0.000000 -15.102838 -11.523129 -7.023595 95.698817 3.178335 19.320303 -134.606411 33.846495 -48.366905 0.000000 0.000000 0.000000 
-0.214364 0.849642 0.078952 0.742745 44.219948 18.064066 22.914958 -8.968678 -59.813899 -12.740144 -0.998617 41.692955 -2.909026 0.964982 9.722650 0.000000 0.000000 0.000000 -3.507288 -7.854656 -49.469626 4.082080 -11.969150 54.703767 -4.711148 -11.383312 32.702962 0.000000 0.000000 0.000000 -7.798790 -5.026934 37.828265 -7.899578 3.132272 -5.549949 -1.127480 16.708585 10.927283 5.520588 1.138291 -14.928557 0.000000 0.000000 0.000000 -0.414127 13.690790 -5.643168 -81.385865 -33.924331 4.129751 158.782634 -43.412021 -127.808044 0.000000 0.000000 0.000000 -15.649786 -10.136917 -6.647646 95.743028 5.047614 21.180246 -133.003098 31.936835 -43.549471 0.000000 0.000000 0.000000 
-0.217905 0.848862 0.080997 -0.190405 43.867523 17.784925 23.679193 -8.600646 -60.072671 -11.886215 -1.246630 42.054843 -3.181647 0.133683 9.484723 0.000000 0.000000 0.000000 -2.681975 -7.279988 -49.653801 4.709813 -12.046289 53.914309 -5.502105 -12.254452 32.836646 0.000000 0.000000 0.000000 -9.257321 -4.736423 38.780897 -8.096372 3.173733 -4.743143 -1.531840 17.581202 10.202748 6.768196 0.455755 -15.228585 0.000000 0.000000 0.000000 0.261255 12.927583 -4.958076 -80.650207 -34.787371 4.582639 158.231553 -41.353280 -124.108594 0.000000 0.000000 0.000000 -16.157448 -8.830984 -6.271672 95.593023 6.530646 22.564648 -132.458319 29.717452 -39.332752 0.000000 0.000000 0.000000 
-0.221678 0.848092 0.082623 -1.156790 43.129610 17.670952 24.662400 -8.081337 -60.442477 -11.512081 -1.209100 42.317233 -2.921211 0.606559 9.497368 0.000000 0.000000 0.000000 -1.877276 -6.798612 -50.335216 5.587290 -12.163437 53.287115 -6.480254 -13.512117 34.105290 0.000000 0.000000 0.000000 -10.329470 -4.376817 39.318250 -8.878835 3.420590 -4.749878 -1.768830 17.943890 10.181513 7.368731 -0.123587 -14.643710 0.000000 0.000000 0.000000 0.246972 12.370390 -4.787792 -80.388331 -35.645252 5.365997 158.376279 -40.952068 -124.046245 0.000000 0.000000 0.000000 -16.008423 -8.017299 -5.923303 95.088092 8.212558 23.573867 -133.270084 28.863834 -38.508659 0.000000 0.000000 0.000000 
-0.224776 0.848220 0.083945 -1.413826 43.433004 18.187481 24.700289 -8.247509 -60.919258 -10.392252 -1.668734 42.262436 -2.857450 0.353344 8.897194 0.000000 0.000000 0.000000 -1.434455 -6.801440 -50.895753 6.077765 -12.150730 52.314027 -7.314384 -14.387916 36.014955 0.000000 0.000000 0.000000 -10.714798 -4.431660 39.923684 -8.751733 3.360074 -4.607591 -2.696254 18.247608 9.883187 8.739146 -1.274206 -13.790453 0.000000 0.000000 0.000000 0.862458 11.662115 -4.208464 -79.922071 -35.513170 4.943914 157.971805 -40.130104 -122.281401 0.000000 0.000000 0.000000 -16.533910 -7.767954 -5.891603 94.876676 8.062678 23.679159 -133.507313 27.870480 -37.325128 0.000000 0.000000 0.000000 
-0.227272 0.849230 0.085038 -1.877931 42.897453 18.427857 25.037865 -7.986114 -61.045091 -9.989506 -1.668610 41.849566 -2.458213 1.557988 9.390996 0.000000 0.000000 0.000000 -1.259553 -6.616306 -51.147605 6.896963 -12.203588 51.286035 -6.867247 -13.940329 36.915139 0.000000 0.000000 0.000000 -11.274917 -4.182203 40.154600 -9.238373 3.501962 -4.564688 -2.822335 18.128589 9.709068 8.989878 -1.608455 -13.446239 0.000000 0.000000 0.000000 1.052713 11.578955 -4.052287 -79.308224 -35.684995 5.185042 157.306063 -40.080750 -121.119863 0.000000 0.000000 0.000000 -15.575029 -7.814373 -5.683153 92.959296 8.371656 22.316364 -134.374821 28.740816 -38.864410 0.000000 0.000000 0.000000 
-0.229215 0.850310 0.086073 -2.409529 42.423629 18.562778 25.247064 -7.786307 -61.142867 -9.725593 -1.640566 41.468792 -1.662344 3.627366 9.962635 0.000000 0.000000 0.000000 -0.926041 -6.351733 -51.356909 6.854085 -11.932823 51.060986 -4.066312 -10.837402 35.376202 0.000000 0.000000 0.000000 -11.538946 -3.951986 39.986323 -8.721726 3.329054 -4.494887 -3.567576 18.291483 9.361913 9.930239 -2.704911 -12.226486 0.000000 0.000000 0.000000 2.216888 11.925071 -3.452510 -78.940617 -35.912603 4.921675 156.360574 -40.695570 -120.238545 0.000000 0.000000 0.000000 -15.304496 -8.591392 -5.851977 91.246993 7.638173 20.853798 -133.544938 30.374244 -40.496491 0.000000 0.000000 0.000000 
-0.231287 0.853145 0.087016 -2.428838 42.517033 18.608792 25.360564 -7.736685 -60.900511 -9.749957 -1.538057 40.493175 -1.733479 4.356538 11.305132 0.000000 0.000000 0.000000 -1.134206 -6.402392 -51.032246 6.929249 -11.871467 50.519173 -1.540699 -8.051908 35.470469 0.000000 0.000000 0.000000 -11.600761 -3.928769 39.912921 -8.207152 3.186962 -4.976216 -3.691615 18.796027 10.064295 10.416457 -3.296820 -11.429830 0.000000 0.000000 0.000000 3.405753 11.841338 -2.785657 -78.644324 -36.623226 4.703835 156.054683 -41.441461 -120.990178 0.000000 0.000000 0.000000 -15.472578 -9.731534 -6.325223 90.262602 5.721871 19.257811 -132.601149 31.533627 -41.080741 0.000000 0.000000 0.000000 
-0.233614 0.855891 0.088210 -2.425863 42.527485 18.822283 25.774207 -7.610755 -60.969273 -10.295589 -1.229284 40.024898 -1.452408 5.431573 12.227598 0.000000 0.000000 0.000000 -1.216751 -6.408936 -50.893092 6.918792 -11.736216 50.091458 0.801051 -5.390687 35.061904 0.000000 0.000000 0.000000 -11.523789 -3.819504 39.382324 -7.379541 2.936781 -5.400947 -3.941343 18.992192 10.367686 11.013376 -3.748376 -11.301515 0.000000 0.000000 0.000000 4.731176 11.465817 -1.926677 -77.785487 -37.824118 4.827748 155.637664 -41.211654 -119.877148 0.000000 0.000000 0.000000 -15.777934 -10.426511 -6.634477 88.859596 3.529518 17.137880 -131.843979 33.011810 -42.360492 0.000000 0.000000 0.000000 
